<svg id="图层_1" data-name="图层 1" xmlns="http://www.w3.org/2000/svg" viewBox="0 0 1186.2 384.4"><defs><style>.cls-1,.cls-2,.cls-3{fill:none;stroke:#231815;stroke-linecap:round;stroke-miterlimit:10;}.cls-1{stroke-width:20px;}.cls-2{stroke-width:20px;}</style></defs><title>整流变压器</title><circle class="cls-1" cx="110.2" cy="104.2" r="99.2"/><circle class="cls-1" cx="104.2" cy="280.2" r="99.2"/><circle class="cls-1" cx="302.2" cy="280.2" r="99.2"/><circle class="cls-1" cx="308.2" cy="104.2" r="99.2"/><line class="cls-1" x1="113.7" y1="46.4" x2="60.7" y2="114.4"/><line class="cls-1" x1="37.7" y1="115.9" x2="139.7" y2="111.9"/><line class="cls-1" x1="109.7" y1="54.9" x2="153.7" y2="125.9"/><line class="cls-1" x1="318.7" y1="56.9" x2="258.7" y2="125.9"/><line class="cls-1" x1="232.7" y1="129.9" x2="361.7" y2="124.9"/><line class="cls-1" x1="313.7" y1="61.9" x2="371.7" y2="138.9"/><line class="cls-1" x1="41.7" y1="237.9" x2="87.7" y2="287.9"/><line class="cls-2" x1="155.7" y1="236.9" x2="87.7" y2="286.9"/><line class="cls-1" x1="87.7" y1="287.9" x2="87.7" y2="358.9"/><line class="cls-3" x1="1185.7" y1="1.9" x2="1185.7" y2="4.9"/><line class="cls-1" x1="288.7" y1="245.9" x2="249.7" y2="323.9"/><line class="cls-1" x1="249.7" y1="323.9" x2="361.7" y2="323.9"/><line class="cls-1" x1="361.7" y1="323.9" x2="322.7" y2="241.9"/></svg>